<?xml version="1.0" encoding="UTF-8" standalone="no"?>
<svg
   xmlns:dc="http://purl.org/dc/elements/1.1/"
   xmlns:cc="http://creativecommons.org/ns#"
   xmlns:rdf="http://www.w3.org/1999/02/22-rdf-syntax-ns#"
   xmlns:svg="http://www.w3.org/2000/svg"
   xmlns="http://www.w3.org/2000/svg"
   xmlns:sodipodi="http://sodipodi.sourceforge.net/DTD/sodipodi-0.dtd"
   xmlns:inkscape="http://www.inkscape.org/namespaces/inkscape"
   version="1.1"
   id="svg7"
   sodipodi:docname="optimised.svg"
   width="198.79425"
   height="99.999962"
   inkscape:export-filename="C:\Users\Steven\Desktop\eoh-r.png"
   inkscape:export-xdpi="48.290001"
   inkscape:export-ydpi="48.290001"
   inkscape:version="0.92.3 (2405546, 2018-03-11)">
  <metadata
     id="metadata13">
    <rdf:RDF>
      <cc:Work
         rdf:about="">
        <dc:format>image/svg+xml</dc:format>
        <dc:type
           rdf:resource="http://purl.org/dc/dcmitype/StillImage" />
        <dc:title></dc:title>
      </cc:Work>
    </rdf:RDF>
  </metadata>
  <defs
     id="defs11" />
  <sodipodi:namedview
     pagecolor="#ffffff"
     bordercolor="#666666"
     borderopacity="1"
     objecttolerance="10"
     gridtolerance="10"
     guidetolerance="10"
     inkscape:pageopacity="0"
     inkscape:pageshadow="2"
     inkscape:window-width="1920"
     inkscape:window-height="1017"
     id="namedview9"
     showgrid="false"
     inkscape:pagecheckerboard="true"
     inkscape:zoom="7.8852002"
     inkscape:cx="83.763661"
     inkscape:cy="77.960404"
     inkscape:window-x="1912"
     inkscape:window-y="-8"
     inkscape:window-maximized="1"
     inkscape:current-layer="svg7" />
  <path
     style="clip-rule:evenodd;fill-rule:evenodd;stroke-width:0.5187906;fill:#f9f9f9"
     inkscape:connector-curvature="0"
     id="path4"
     d="m 121.1235,1.52951 v 73.662552 h 72.54819 V 1.52951 Z m 38.79464,9.31541 6.67113,-0.002 c 3.63049,0 7.04414,1.41422 9.61163,3.9812 2.56646,2.56698 3.98016,5.97958 3.98016,9.60956 0,7.49393 -6.09682,13.59075 -13.59179,13.59075 l -6.67113,0.008 z m -8.15539,54.46934 h -20.2043 V 10.8501 h 20.2043 z m 8.15539,0.057 V 39.7539 l 26.12007,25.61736 z m -28.91272,28.069201 h 5.34666 v -1.9149 h -5.34666 v -2.5431 h 5.79126 v -1.914899 h -8.0895 v 11.168099 h 8.34993 v -1.9149 h -6.05169 z m 22.39515,-6.372899 h -2.29824 v 11.168099 h 7.64438 v -1.9149 h -5.34614 z m 6.59954,1.914899 h 3.38563 v 9.2532 h 2.29772 v -9.2532 h 3.26371 v -1.914899 h -8.94706 z m 36.67123,-1.503499 c -1.18129,0 -2.13379,0.952499 -2.13379,2.122899 a 2.1301542,2.1301542 0 0 0 2.13379,2.1333 2.1244475,2.1244475 0 0 0 2.12289,-2.1333 2.1223723,2.1223723 0 0 0 -2.12289,-2.122899 z m 0,4.000399 a 1.8702401,1.8702401 0 0 1 -1.87231,-1.8775 1.8676462,1.8676462 0 0 1 1.87231,-1.8666 1.8666086,1.8666086 0 0 1 1.86661,1.8666 1.8702401,1.8702401 0 0 1 -1.86661,1.8775 z m -70.84189,5.4235 c -0.0156,-0.5671 -0.0457,-2.0373 -0.10739,-2.497 -0.12244,-1.0111 -0.85808,-1.2866 -1.24095,-1.547 0.75069,-0.4441 1.24095,-0.7963 1.51642,-1.7618 0.27548,-0.9644 0.0457,-1.7618 -0.10739,-2.2521 -0.32216,-1.2098 -1.45572,-1.731199 -2.57372,-1.776799 h -6.20473 v 11.167999 h 2.29824 v -4.4123 h 2.69616 c 0.79686,0 1.34833,0.3678 1.37894,1.1185 -0.0306,0.8114 -0.0306,1.7 0,2.252 0.0306,0.3679 0.12244,0.7046 0.30661,1.0418 h 2.46633 v -0.4135 c -0.24487,-0.1541 -0.42852,-0.2916 -0.42852,-0.9198 z m -3.27876,-4.9944 h -3.14076 v -2.926 h 3.11015 c 1.02669,0 1.39399,0.4597 1.39399,1.256 0.13852,1.1029 -0.82695,1.67 -1.36338,1.67 z m 22.65559,-4.840899 h -2.65051 l -3.89093,11.168099 h 2.3439 l 0.7813,-2.2371 h 4.13684 l 0.76625,2.2371 h 2.34441 z m -2.78902,7.016199 1.47129,-4.335 1.48581,4.335 z m 36.98977,-5.8058 c -0.93434,-0.964999 -2.29825,-1.394499 -3.72284,-1.394499 -1.4246,0 -2.7885,0.429 -3.72285,1.394499 -1.04173,1.0879 -1.65442,2.7729 -1.65442,4.458 0,1.685 0.61321,3.3705 1.65442,4.4584 0.93435,0.965 2.29825,1.3945 3.72285,1.3945 1.42459,0 2.7885,-0.429 3.72284,-1.3945 1.04173,-1.0879 1.65442,-2.7734 1.65442,-4.4584 0,-1.6851 -0.61269,-3.3701 -1.65442,-4.458 z m -1.66947,7.552 c -0.5826,0.5364 -1.31721,0.7507 -2.05286,0.7507 -0.73564,0 -1.47129,-0.2143 -2.05285,-0.7507 -0.73565,-0.6739 -1.10347,-1.8842 -1.11851,-3.0946 0.015,-1.2103 0.38286,-2.4206 1.11851,-3.0946 0.58156,-0.5364 1.31721,-0.7506 2.05285,-0.7506 0.73565,0 1.47026,0.2142 2.05286,0.7506 0.73564,0.674 1.10347,1.8843 1.11851,3.0946 -0.015,1.2109 -0.38287,2.4212 -1.11851,3.0946 z m 14.36583,1.0729 c -0.015,-0.5671 -0.0457,-2.0373 -0.10635,-2.497 -0.12244,-1.0111 -0.85808,-1.2866 -1.24147,-1.547 0.75069,-0.4441 1.24147,-0.7963 1.51695,-1.7618 0.27547,-0.9644 0.0457,-1.7618 -0.10739,-2.2521 -0.32217,-1.2098 -1.45521,-1.731199 -2.57372,-1.776799 h -6.20526 v 11.167999 h 2.29824 v -4.4123 h 2.69616 c 0.79738,0 1.34885,0.3678 1.37894,1.1185 -0.0306,0.8114 -0.0306,1.7 0,2.252 0.0306,0.3679 0.12244,0.7046 0.30609,1.0418 h 2.46737 v -0.4135 c -0.24487,-0.1541 -0.42956,-0.2916 -0.42956,-0.9198 z m -3.27772,-4.9944 h -3.14128 v -2.926 h 3.11067 c 1.02669,0 1.39451,0.4597 1.39451,1.256 0.13748,1.1029 -0.82799,1.67 -1.3639,1.67 z" />
  <path
     style="clip-rule:evenodd;fill-rule:evenodd;stroke-width:0.5187906"
     inkscape:connector-curvature="0"
     id="path6"
     d="m 197.76236,89.044261 c 0,-0.2007 -0.0892,-0.4124 -0.2677,-0.5125 -0.17743,-0.1059 -0.3782,-0.1168 -0.57845,-0.1168 h -1.03654 v 2.3787 h 0.29 v -1.0978 h 0.53487 l 0.68014,1.0978 h 0.34447 l -0.71852,-1.0978 c 0.42333,-0.011 0.75173,-0.1831 0.75173,-0.6516 z m -1.14705,0.4239 h -0.44564 v -0.8415 h 0.68013 c 0.29468,0 0.61788,0.045 0.61788,0.4124 0,0.4846 -0.51775,0.4291 -0.85237,0.4291 z" />
  <path
     id="path823"
     d="M 0,28.0114 50.5634,0 100,28.2892 v 9.8454 H 92.1121 V 72.94136 H 7.74678 V 38.1355 H 0 Z M 50.5596,10.5529 18.0244,29.1355 V 64.08106 H 82.3903 V 29.1355 Z m -17.304,31.8956 v -8.5982 h 33.6619 v 8.5982 z m 0,4.2871 h 33.6619 v 8.5982 H 33.2556 Z m 18.2915,53.263461 v -10.9548 h 5.9157 c 4.2256,0 7.1834,1.2482 7.1834,5.6862 0,4.2991 -2.6757,5.2695 -7.3245,5.2695 h -5.7746 z m 3.097,-8.602 v 6.2399 h 2.5356 c 2.3935,0 4.0845,-0.4157 4.0845,-2.912 0,-2.2186 -1.8311,-3.3279 -3.8024,-3.3279 z m 27.6202,8.602 v -10.9548 h 8.1691 c 3.0979,0 4.3667,0.9713 4.3667,3.4667 0,1.8028 -0.9866,2.6353 -3.0989,2.913 l 3.239,4.576 h -3.3801 l -3.2391,-4.576 h -2.9578 v 4.576 h -3.0989 z m 7.7327,-8.6001 h -4.6479 v 1.6639 h 4.5068 c 1.549,0 1.9722,0 1.9722,-0.8324 0,-0.6926 -0.5633,-0.8315 -1.8311,-0.8315 z m -55.3448,-2.3547 v 10.9548 H 37.61 v -6.6556 l 5.9157,6.6556 h 3.5212 v -10.9548 H 44.089 v 6.7946 l -5.9156,-6.7946 z m -28.88984,0 v 10.9548 H 16.8892 v -2.3575 l -8.0279,-0.1388 v -8.4585 z m 14.24274,10.9548 h 10.8447 v -2.3575 h -7.6057 v -2.3574 h 6.3379 v -2.2185 h -6.3379 v -1.6639 h 7.6057 v -2.3575 H 20.0051 Z m 48.0306,-10.9548 v 10.9548 l 10.7037,-0.138 v -2.2195 h -7.6057 v -2.3574 h 6.479 v -2.2185 h -6.479 v -1.6639 h 7.6057 v -2.3575 z m -40.3008,-2.779599 2.8168,-9.8455 h 2.3945 l 2.8167,9.8455 h -2.1941 l -0.6236,-2.2186 h -2.5355 l -0.6236,2.2186 z m 3.9548,-7.7445 -0.8446,3.8824 h 1.8311 z m -19.5809,4.1398 v -2.6352 c 0,-2.4963 0.8445,-3.8824 3.3801,-3.8824 2.8167,0 3.3801,1.6639 3.3801,4.0213 v 2.0806 c 0,1.2481 -0.1411,1.8028 -0.5634,2.6352 l 1.6901,0.5546 -0.1411,0.6935 c -5.7736,0 -7.7458,-0.1388 -7.7458,-3.4676 z m 2.1076,-2.4972 v 2.3574 c 0,1.8028 0.2821,2.3574 1.2678,2.3574 1.1267,0 1.2677,-0.4157 1.2677,-2.2185 v -2.6352 c 0,-1.9417 -0.1401,-2.2185 -1.1267,-2.2185 -1.2677,0 -1.4088,0.5546 -1.4088,2.3574 z m 55.0758,3.4658 c 0,1.525 0.9856,2.7741 3.239,2.7741 1.8312,0 3.5212,-1.2482 3.5212,-2.7741 0,-2.3575 -4.5068,-3.4667 -4.5068,-4.9927 0,-0.5546 0.5633,-0.8315 1.1267,-0.8315 0.8446,0 1.2678,0.5547 1.6901,1.3871 l 1.4088,-0.5547 c -0.1401,-1.387 -1.1267,-2.4963 -3.239,-2.4963 -1.6901,0 -3.098,0.8315 -3.098,2.4963 0,2.7741 4.5068,3.4667 4.5068,5.2695 0,0.6936 -0.4223,0.9713 -1.2678,0.9713 -0.8455,0 -1.4088,-0.5546 -1.69,-1.525 z m -15.1945,-0.5547 v -3.1889 c 0,-2.6352 1.2678,-3.7445 3.3801,-3.7445 2.6766,0 3.3801,0.9704 3.3801,3.4667 v 3.051 c 0,2.6352 -0.7044,3.7445 -3.3801,3.7445 -2.6747,-0.001 -3.3801,-0.9714 -3.3801,-3.3288 z m 2.1076,-3.3278 v 3.05 c 0,1.3871 0.1402,2.0806 1.2678,2.0806 0.8446,0 1.2678,-0.5546 1.2678,-2.2185 v -2.9121 c 0,-1.1093 -0.1402,-2.0806 -1.2678,-2.0806 -1.1276,0 -1.2678,0.8324 -1.2678,2.0806 z m 31.8214,2.9121 c 0,2.912 0.8455,3.7445 3.6622,3.7445 2.1801,0 2.8168,-1.0065 2.8168,-2.0806 v -3.1899 h -2.9578 v 1.525 h 0.9856 v 1.1093 c 0,0.8315 -0.2812,1.2482 -0.9856,1.2482 -1.4089,0 -1.549,-0.9713 -1.549,-2.3575 v -2.2185 c 0,-1.6639 0.1401,-2.7732 1.549,-2.7732 0.9856,0 1.5489,0.6936 1.69,1.6639 l 1.4079,-0.5546 c -0.1401,-1.6639 -1.2678,-2.6352 -3.239,-2.6352 -2.8168,0 -3.3801,1.525 -3.3801,3.6056 z m -26.3252,-6.2408 v 5.6852 c 0,3.3287 0.5794,4.3926 3.5372,4.3926 2.2534,0 3.082,-1.2027 3.082,-4.1148 v -5.963 h -1.9722 v 5.6852 c 0,2.2186 -0.1411,2.7741 -1.2678,2.7741 -1.1267,0 -1.2678,-0.8324 -1.2678,-2.9121 v -5.5472 z m 18.7223,0 v 9.8454 h 1.69 v -6.6565 l 2.3945,6.6565 h 2.5356 v -9.8454 h -1.691 v 6.101 l -2.2534,-6.101 z m -59.5695,0 v 5.963 c 0,2.7732 0.2822,4.0213 3.0989,4.0213 3.2391,0 3.3801,-1.525 3.3801,-4.2991 v -5.6852 h -1.9722 v 5.8241 c 0,1.9417 -0.2812,2.4963 -1.2677,2.4963 -1.1267,0 -1.2678,-0.5546 -1.2678,-2.7732 v -5.5472 z m 25.4881,0 v 9.8454 h 1.9722 v -4.437 h 2.3945 v 4.437 h 1.9713 v -9.8454 h -1.9713 v 3.7435 h -2.3945 v -3.7435 z m -40.70701,0 v 9.8454 h 5.07111 v -1.525 H 7.60759 v -2.7741 h 2.81671 v -1.387 H 7.60759 v -2.6343 h 3.09891 v -1.525 z m 30.98431,0 v 9.8454 h 4.6479 v -1.525 h -2.9578 v -8.3204 z m 40.4409,0 h 1.8311 v 9.8454 h -1.8311 z"
     inkscape:connector-curvature="0"
     style="stroke-width:0.93318188;fill:#f9f9f9" />
</svg>
