<?xml version="1.0" encoding="UTF-8"?>
<svg version="1.1" viewBox="0 0 198.79 100" xmlns="http://www.w3.org/2000/svg">
<path d="m121.12 1.5295v73.663h72.548v-73.663zm38.795 9.3154 6.6711-2e-3c3.6305 0 7.0441 1.4142 9.6116 3.9812 2.5665 2.567 3.9802 5.9796 3.9802 9.6096 0 7.4939-6.0968 13.591-13.592 13.591l-6.6711 8e-3zm-8.1554 54.469h-20.204v-54.464h20.204zm8.1554 0.057v-25.617l26.12 25.617zm-28.913 28.069h5.3467v-1.9149h-5.3467v-2.5431h5.7913v-1.9149h-8.0895v11.168h8.3499v-1.9149h-6.0517zm22.395-6.3729h-2.2982v11.168h7.6444v-1.9149h-5.3461zm6.5995 1.9149h3.3856v9.2532h2.2977v-9.2532h3.2637v-1.9149h-8.9471zm36.671-1.5035c-1.1813 0-2.1338 0.9525-2.1338 2.1229a2.1302 2.1302 0 0 0 2.1338 2.1333 2.1244 2.1244 0 0 0 2.1229 -2.1333 2.1224 2.1224 0 0 0 -2.1229 -2.1229zm0 4.0004a1.8702 1.8702 0 0 1 -1.8723 -1.8775 1.8676 1.8676 0 0 1 1.8723 -1.8666 1.8666 1.8666 0 0 1 1.8666 1.8666 1.8702 1.8702 0 0 1 -1.8666 1.8775zm-70.842 5.4235c-0.0156-0.5671-0.0457-2.0373-0.10739-2.497-0.12244-1.0111-0.85808-1.2866-1.241-1.547 0.75069-0.4441 1.241-0.7963 1.5164-1.7618 0.27548-0.9644 0.0457-1.7618-0.10739-2.2521-0.32216-1.2098-1.4557-1.7312-2.5737-1.7768h-6.2047v11.168h2.2982v-4.4123h2.6962c0.79686 0 1.3483 0.3678 1.3789 1.1185-0.0306 0.8114-0.0306 1.7 0 2.252 0.0306 0.3679 0.12244 0.7046 0.30661 1.0418h2.4663v-0.4135c-0.24487-0.1541-0.42852-0.2916-0.42852-0.9198zm-3.2788-4.9944h-3.1408v-2.926h3.1102c1.0267 0 1.394 0.4597 1.394 1.256 0.13852 1.1029-0.82695 1.67-1.3634 1.67zm22.656-4.8409h-2.6505l-3.8909 11.168h2.3439l0.7813-2.2371h4.1368l0.76625 2.2371h2.3444zm-2.789 7.0162 1.4713-4.335 1.4858 4.335zm36.99-5.8058c-0.93434-0.965-2.2982-1.3945-3.7228-1.3945-1.4246 0-2.7885 0.429-3.7228 1.3945-1.0417 1.0879-1.6544 2.7729-1.6544 4.458 0 1.685 0.61321 3.3705 1.6544 4.4584 0.93435 0.965 2.2982 1.3945 3.7228 1.3945 1.4246 0 2.7885-0.429 3.7228-1.3945 1.0417-1.0879 1.6544-2.7734 1.6544-4.4584 0-1.6851-0.61269-3.3701-1.6544-4.458zm-1.6695 7.552c-0.5826 0.5364-1.3172 0.7507-2.0529 0.7507-0.73564 0-1.4713-0.2143-2.0528-0.7507-0.73565-0.6739-1.1035-1.8842-1.1185-3.0946 0.015-1.2103 0.38286-2.4206 1.1185-3.0946 0.58156-0.5364 1.3172-0.7506 2.0528-0.7506 0.73565 0 1.4703 0.2142 2.0529 0.7506 0.73564 0.674 1.1035 1.8843 1.1185 3.0946-0.015 1.2109-0.38287 2.4212-1.1185 3.0946zm14.366 1.0729c-0.015-0.5671-0.0457-2.0373-0.10635-2.497-0.12244-1.0111-0.85808-1.2866-1.2415-1.547 0.75069-0.4441 1.2415-0.7963 1.517-1.7618 0.27547-0.9644 0.0457-1.7618-0.10739-2.2521-0.32217-1.2098-1.4552-1.7312-2.5737-1.7768h-6.2053v11.168h2.2982v-4.4123h2.6962c0.79738 0 1.3488 0.3678 1.3789 1.1185-0.0306 0.8114-0.0306 1.7 0 2.252 0.0306 0.3679 0.12244 0.7046 0.30609 1.0418h2.4674v-0.4135c-0.24487-0.1541-0.42956-0.2916-0.42956-0.9198zm-3.2777-4.9944h-3.1413v-2.926h3.1107c1.0267 0 1.3945 0.4597 1.3945 1.256 0.13748 1.1029-0.82799 1.67-1.3639 1.67z" clip-rule="evenodd" fill="#f9f9f9" fill-rule="evenodd" stroke-width=".51879"/>
<path d="m197.76 89.044c0-0.2007-0.0892-0.4124-0.2677-0.5125-0.17743-0.1059-0.3782-0.1168-0.57845-0.1168h-1.0365v2.3787h0.29v-1.0978h0.53487l0.68014 1.0978h0.34447l-0.71852-1.0978c0.42333-0.011 0.75173-0.1831 0.75173-0.6516zm-1.147 0.4239h-0.44564v-0.8415h0.68013c0.29468 0 0.61788 0.045 0.61788 0.4124 0 0.4846-0.51775 0.4291-0.85237 0.4291z" clip-rule="evenodd" fill-rule="evenodd" stroke-width=".51879"/>
<path d="m0 28.011 50.563-28.011 49.437 28.289v9.8454h-7.8879v34.807h-84.365v-34.806h-7.7468zm50.56-17.458-32.535 18.583v34.946h64.366v-34.946zm-17.304 31.896v-8.5982h33.662v8.5982zm0 4.2871h33.662v8.5982h-33.662zm18.292 53.263v-10.955h5.9157c4.2256 0 7.1834 1.2482 7.1834 5.6862 0 4.2991-2.6757 5.2695-7.3245 5.2695h-5.7746zm3.097-8.602v6.2399h2.5356c2.3935 0 4.0845-0.4157 4.0845-2.912 0-2.2186-1.8311-3.3279-3.8024-3.3279zm27.62 8.602v-10.955h8.1691c3.0979 0 4.3667 0.9713 4.3667 3.4667 0 1.8028-0.9866 2.6353-3.0989 2.913l3.239 4.576h-3.3801l-3.2391-4.576h-2.9578v4.576h-3.0989zm7.7327-8.6001h-4.6479v1.6639h4.5068c1.549 0 1.9722 0 1.9722-0.8324 0-0.6926-0.5633-0.8315-1.8311-0.8315zm-55.345-2.3547v10.955h2.9578v-6.6556l5.9157 6.6556h3.5212v-10.955h-2.9579v6.7946l-5.9156-6.7946zm-28.89 0v10.955h11.127v-2.3575l-8.0279-0.1388v-8.4585zm14.243 10.955h10.845v-2.3575h-7.6057v-2.3574h6.3379v-2.2185h-6.3379v-1.6639h7.6057v-2.3575h-10.845zm48.031-10.955v10.955l10.704-0.138v-2.2195h-7.6057v-2.3574h6.479v-2.2185h-6.479v-1.6639h7.6057v-2.3575zm-40.301-2.7796 2.8168-9.8455h2.3945l2.8167 9.8455h-2.1941l-0.6236-2.2186h-2.5355l-0.6236 2.2186zm3.9548-7.7445-0.8446 3.8824h1.8311zm-19.581 4.1398v-2.6352c0-2.4963 0.8445-3.8824 3.3801-3.8824 2.8167 0 3.3801 1.6639 3.3801 4.0213v2.0806c0 1.2481-0.1411 1.8028-0.5634 2.6352l1.6901 0.5546-0.1411 0.6935c-5.7736 0-7.7458-0.1388-7.7458-3.4676zm2.1076-2.4972v2.3574c0 1.8028 0.2821 2.3574 1.2678 2.3574 1.1267 0 1.2677-0.4157 1.2677-2.2185v-2.6352c0-1.9417-0.1401-2.2185-1.1267-2.2185-1.2677 0-1.4088 0.5546-1.4088 2.3574zm55.076 3.4658c0 1.525 0.9856 2.7741 3.239 2.7741 1.8312 0 3.5212-1.2482 3.5212-2.7741 0-2.3575-4.5068-3.4667-4.5068-4.9927 0-0.5546 0.5633-0.8315 1.1267-0.8315 0.8446 0 1.2678 0.5547 1.6901 1.3871l1.4088-0.5547c-0.1401-1.387-1.1267-2.4963-3.239-2.4963-1.6901 0-3.098 0.8315-3.098 2.4963 0 2.7741 4.5068 3.4667 4.5068 5.2695 0 0.6936-0.4223 0.9713-1.2678 0.9713s-1.4088-0.5546-1.69-1.525zm-15.194-0.5547v-3.1889c0-2.6352 1.2678-3.7445 3.3801-3.7445 2.6766 0 3.3801 0.9704 3.3801 3.4667v3.051c0 2.6352-0.7044 3.7445-3.3801 3.7445-2.6747-1e-3 -3.3801-0.9714-3.3801-3.3288zm2.1076-3.3278v3.05c0 1.3871 0.1402 2.0806 1.2678 2.0806 0.8446 0 1.2678-0.5546 1.2678-2.2185v-2.9121c0-1.1093-0.1402-2.0806-1.2678-2.0806s-1.2678 0.8324-1.2678 2.0806zm31.821 2.9121c0 2.912 0.8455 3.7445 3.6622 3.7445 2.1801 0 2.8168-1.0065 2.8168-2.0806v-3.1899h-2.9578v1.525h0.9856v1.1093c0 0.8315-0.2812 1.2482-0.9856 1.2482-1.4089 0-1.549-0.9713-1.549-2.3575v-2.2185c0-1.6639 0.1401-2.7732 1.549-2.7732 0.9856 0 1.5489 0.6936 1.69 1.6639l1.4079-0.5546c-0.1401-1.6639-1.2678-2.6352-3.239-2.6352-2.8168 0-3.3801 1.525-3.3801 3.6056zm-26.325-6.2408v5.6852c0 3.3287 0.5794 4.3926 3.5372 4.3926 2.2534 0 3.082-1.2027 3.082-4.1148v-5.963h-1.9722v5.6852c0 2.2186-0.1411 2.7741-1.2678 2.7741s-1.2678-0.8324-1.2678-2.9121v-5.5472zm18.722 0v9.8454h1.69v-6.6565l2.3945 6.6565h2.5356v-9.8454h-1.691v6.101l-2.2534-6.101zm-59.57 0v5.963c0 2.7732 0.2822 4.0213 3.0989 4.0213 3.2391 0 3.3801-1.525 3.3801-4.2991v-5.6852h-1.9722v5.8241c0 1.9417-0.2812 2.4963-1.2677 2.4963-1.1267 0-1.2678-0.5546-1.2678-2.7732v-5.5472zm25.488 0v9.8454h1.9722v-4.437h2.3945v4.437h1.9713v-9.8454h-1.9713v3.7435h-2.3945v-3.7435zm-40.707 0v9.8454h5.0711v-1.525h-3.0989v-2.7741h2.8167v-1.387h-2.8167v-2.6343h3.0989v-1.525zm30.984 0v9.8454h4.6479v-1.525h-2.9578v-8.3204zm40.441 0h1.8311v9.8454h-1.8311z" fill="#f9f9f9" stroke-width=".93318"/>
</svg>