<?xml version="1.0" encoding="UTF-8"?>
<svg width="32" height="32" version="1.1" viewBox="0 0 8.4666668 8.4666669" xmlns="http://www.w3.org/2000/svg">
<g transform="translate(-23.628 -72.423)">
<path d="m24.909 80.779c-6e-3 -0.01664-1.1532-3.2902-1.2463-3.5561-0.01915-0.05471-0.03482-0.10043-0.03482-0.1016 0-0.0033 0.23534 0.07034 1.4364 0.44946 0.6146 0.194 1.3874 0.43793 1.7174 0.54206 0.49906 0.1575 0.60084 0.18833 0.60542 0.18338 3e-3 -0.0033 0.02888-0.0406 0.05744-0.08294s0.07006-0.10372 0.09223-0.13638c0.02216-0.03267 0.07126-0.10518 0.10912-0.16115l0.06882-0.10176-0.05387-0.03101c-0.05498-0.03165-0.12978-0.08259-0.17651-0.12021-0.01433-0.01154-0.02731-0.02021-0.02883-0.01927-0.0015 9.53e-4 -0.04714 0.06529-0.10139 0.143-0.09117 0.1306-0.09944 0.14109-0.10934 0.1386-0.0059-0.0015-0.41575-0.1301-0.9108-0.28582-0.49505-0.15572-1.0713-0.337-1.2806-0.40284-0.2093-0.06584-0.4924-0.1549-0.62912-0.19791-0.2248-0.07073-0.24928-0.07757-0.25605-0.07155-0.0089 8e-3 0.0042 0.012-0.18499-0.05686-0.0744-0.02708-0.13526-0.05031-0.13523-0.05164 3.1e-5 -0.0013 0.57663-0.20311 1.2813-0.4484 0.7047-0.2453 1.282-0.44661 1.2828-0.44737 8.47e-4 -7.4e-4 -0.0046-0.03465-0.01203-0.07533-0.0256-0.13933-0.03608-0.24488-0.04249-0.42812-0.0023-0.0663 0.0035-0.2708 0.0086-0.30356 9.52e-4 -6e-3 3e-3 -0.02585 0.0046-0.04399 0.0078-0.09131 0.02831-0.22376 0.05045-0.32654 0.13443-0.62402 0.47577-1.1865 0.97038-1.5991 0.40901-0.3412 0.90259-0.56064 1.4274-0.63463 0.04969-7e-3 0.10619-0.014 0.12555-0.01555 0.01936-0.0015 0.04212-0.0036 0.05059-0.0045 0.09165-0.01009 0.31568-0.01022 0.44434-2.6e-4 0.0496 0.0038 0.09514 0.0079 0.10119 9e-3 6e-3 0.0011 0.0209 0.0031 0.033 0.0045 0.50556 0.05792 1.0264 0.27536 1.4315 0.59759 0.16021 0.12745 0.32221 0.28702 0.44973 0.44296 0.23742 0.29034 0.42424 0.64578 0.52778 1.0041 0.07671 0.26551 0.11188 0.51548 0.11188 0.79524 0 0.311-0.04431 0.59179-0.13945 0.88378-0.13832 0.42449-0.36856 0.80217-0.68519 1.1239-0.18624 0.18927-0.37775 0.33995-0.59469 0.46794-0.03599 0.02123-0.06539 0.04059-0.06533 0.04301 5.2e-5 0.0024 0.06115 0.1806 0.13575 0.39595 0.0746 0.21535 0.13443 0.3929 0.13295 0.39456-0.0015 0.0017-0.20561 0.07423-0.45363 0.16128-1.5696 0.55088-5.4903 1.9277-5.5 1.9314-0.01059 4e-3 -0.01217 0.0033-0.016-0.0074zm4.5107-2.9016c0.0073-0.0011 0.02904-0.0033 0.04839-0.0049 0.06107-0.0051 0.19035-0.02429 0.26816-0.03986 0.23873-0.04779 0.48556-0.14215 0.68651-0.26245 0.03387-0.02028 0.0809-0.04828 0.1045-0.06222 0.17511-0.10343 0.33272-0.2263 0.48312-0.37662 0.19316-0.19306 0.34196-0.39912 0.46356-0.64196 0.29093-0.58101 0.33898-1.2675 0.13229-1.8902-0.30473-0.91795-1.1184-1.5805-2.0831-1.6963-0.18928-0.02271-0.4265-0.02172-0.619 0.0026-0.72068 0.09102-1.3696 0.49574-1.7714 1.1048-0.19728 0.29903-0.3326 0.64841-0.38319 0.98932-0.0098 0.0661-0.01009 0.0683-0.01553 0.12318-0.0026 0.02662-0.0058 0.05532-0.0069 0.06379-0.0012 0.0085-0.0034 0.07083-0.0049 0.13858-0.0044 0.19838 0.0076 0.32133 0.0467 0.47699 7e-3 0.02801 0.01404 0.05984 0.01555 0.07073 0.02017 0.14477 0.0787 0.34414 0.15034 0.51208 0.14152 0.3318 0.38838 0.66112 0.66869 0.89202 0.03331 0.02744 0.07153 0.05991 0.08493 0.07214 0.06275 0.0573 0.11719 0.09646 0.19374 0.13936 0.02783 0.0156 0.072 0.04163 0.09817 0.05786 0.05382 0.03338 0.15846 0.08917 0.22766 0.12139 0.24676 0.11486 0.55648 0.19314 0.82901 0.20953 0.02662 0.0016 0.04937 0.0038 0.05056 0.0049 0.0027 0.0024 0.31413-2e-3 0.33219-0.0047zm-0.2706-0.72123c-0.0012-0.0011-0.02579-0.0032-0.05468-0.0047-0.13202-7e-3 -0.31098-0.04362-0.46429-0.09493-0.17515-0.05861-0.22446-0.07796-0.32348-0.12694-0.12484-0.06174-0.16092-0.08291-0.25297-0.14838-0.14706-0.10461-0.24825-0.19888-0.33984-0.31662-0.1737-0.2233-0.27645-0.4792-0.3095-0.77086-8e-3 -0.07086-0.01066-0.23338-5e-3 -0.307 0.02129-0.27554 0.14492-0.6149 0.3228-0.88611 0.08172-0.1246 0.16508-0.2252 0.27925-0.33702 0.308-0.30167 0.69038-0.48129 1.1147-0.52362 0.06487-0.0065 0.27162-0.0097 0.30136-0.0047 6e-3 1e-3 0.02738 0.0032 0.04741 0.0048s0.04081 0.0036 0.04619 0.0046c0.0054 9e-4 0.02661 0.0039 0.04718 0.0066 0.06089 8e-3 0.18249 0.0336 0.24857 0.05231 0.33981 0.09622 0.5903 0.23566 0.79853 0.44455 0.23057 0.23129 0.363 0.50494 0.40466 0.83612 0.0099 0.07854 0.0088 0.24954-2e-3 0.32503-0.0012 0.0088-0.0043 0.03077-0.0068 0.04892-0.03279 0.2396-0.1531 0.53141-0.30261 0.73397-0.11419 0.1547-0.25066 0.27391-0.40052 0.34984-0.14082 0.07135-0.24733 0.09411-0.41869 0.08948-0.09354-0.0025-0.15264-0.01001-0.20237-0.02563-0.05999-0.01884-0.13081-0.04504-0.15618-0.05776-0.10942-0.05488-0.18055-0.14342-0.20517-0.25536-0.01041-0.04734-0.01149-0.14286-0.0022-0.19575 0.0031-0.01767 0.0042-0.033 0.0025-0.03408-0.0017-0.0011-0.01277 5e-3 -0.02451 0.0135-0.09184 0.06648-0.1579 0.10418-0.2374 0.13545-0.03999 0.01573-0.10942 0.03482-0.1469 0.04039-0.01089 0.0016-0.02529 0.0038-0.032 0.0049-0.02597 0.0041-0.11274 5e-3 -0.14846 0.0016-0.15832-0.01531-0.28875-0.07296-0.38738-0.17122-0.10588-0.10549-0.15807-0.23592-0.15807-0.39502 0-0.13964 0.04062-0.29043 0.12157-0.4513 0.17753-0.3528 0.49996-0.58495 0.88793-0.63931 0.05832-0.0082 0.2178-0.01141 0.27293-0.0055 0.09524 0.01014 0.19859 0.03074 0.27446 0.0547 0.09054 0.0286 0.28524 0.12862 0.40085 0.20593 0.08424 0.05632 0.16494 0.12617 0.16141 0.13968-0.0011 0.0041-0.06194 0.11613-0.13524 0.24885-0.0733 0.13273-0.1747 0.31655-0.22534 0.4085-0.05064 0.09195-0.09904 0.17906-0.10756 0.19357-0.02367 0.04034-0.06965 0.13661-0.08403 0.17598-0.01966 0.05379-0.02821 0.09677-0.02792 0.14026 2.08e-4 0.03287 0.0021 0.04281 0.01177 0.06258 0.01412 0.02885 0.03976 0.05148 0.0722 0.0637 0.12153 0.04577 0.25854 0.01713 0.38643-0.08078 0.05416-0.04146 0.12812-0.11632 0.16726-0.16927 0.05465-0.07394 0.11062-0.1771 0.14547-0.26809 0.0076-0.01981 0.01867-0.04321 0.02463-0.05198 0.01448-0.02134 0.04181-0.09212 0.06383-0.16531 0.07759-0.25793 0.07056-0.52328-0.01981-0.74815-0.08609-0.21421-0.24296-0.39543-0.46022-0.53164-0.1787-0.11204-0.44317-0.20401-0.63939-0.22235-0.01694-0.0016-0.03669-0.0038-0.04389-0.0049s-0.04779-0.0027-0.09019-0.0035c-0.46131-0.0086-0.89213 0.20509-1.18 0.58529-0.1078 0.14236-0.18987 0.29576-0.25828 0.48273-0.05503 0.15043-0.08122 0.26554-0.09474 0.41649-6e-3 0.067-0.0076 0.23053-0.0028 0.2829 0.01294 0.14048 0.04938 0.26783 0.1123 0.3924 0.10442 0.20677 0.27077 0.37265 0.53036 0.52886 0.04439 0.02671 0.22148 0.10426 0.28381 0.12428 0.09279 0.0298 0.23877 0.06208 0.31012 0.06856 0.01573 0.0014 0.03126 0.0035 0.03451 0.0045 0.03415 0.01109 0.34014 0.01012 0.35836-0.0011 3e-3 -0.0018 0.0034 0.02135 0.0015 0.06943-6e-3 0.14593-0.0081 0.1913-0.0095 0.20635-7.68e-4 0.0085-0.0016 0.02156-0.0018 0.0291-3.71e-4 0.01291-0.0016 0.01387-0.02126 0.01672-0.02434 0.0035-0.2487 0.0086-0.2519 0.0057zm-0.12315-1.3556c0.14936-0.02709 0.3078-0.15309 0.41255-0.32806 0.01844-0.0308 0.25616-0.47403 0.25616-0.4776 0-0.0032-0.04506-0.02663-0.09646-0.05018-0.08846-0.04052-0.1481-0.05347-0.23349-0.0507-0.14812 0.0048-0.29326 0.07232-0.4161 0.19353-0.09143 0.09022-0.14875 0.18021-0.20176 0.31676-0.02531 0.06521-0.03332 0.0978-0.03619 0.14738-0.0063 0.10939 0.05126 0.19496 0.15833 0.23524 0.05268 0.01981 0.10014 0.02394 0.15696 0.01363z" fill="#ed1e24" stroke-width=".0043994"/>
</g>
</svg>