<?xml version="1.0" encoding="UTF-8"?>
<svg clip-rule="evenodd" fill-rule="evenodd" version="1.1" viewBox="0 0 32 32" xmlns="http://www.w3.org/2000/svg">
<path d="m32 16.097c0-8.8896-7.1641-16.097-16-16.097s-16 7.2077-16 16.097c0 8.0339 5.8502 14.694 13.5 15.903v-11.248h-4.0636v-4.6542h4.0636v-3.5473c0-4.034 2.3895-6.2637 6.0436-6.2637 1.7505 0 3.5821 0.31465 3.5821 0.31465v3.9616h-2.0183c-1.9867 0-2.6078 1.2405-2.6078 2.515v3.0197h4.437l-0.70878 4.6542h-3.7284v11.248c7.6501-1.2067 13.5-7.8666 13.5-15.903z" fill="#1977f3" stroke-width=".1234"/>
<path d="m180.67 167.65 5.761-37.601h-36.064v-24.396c0-10.278 5.029-20.318 21.196-20.318h16.405v-32.005s-14.886-2.542-29.115-2.542c-29.7 0-49.122 17.996-49.122 50.604v28.658h-33.029v37.601h33.029v90.875c6.62 1.041 13.405 1.572 20.318 1.572s13.698-0.549 20.318-1.572v-90.875h30.304z" fill="#fefefe"/>
</svg>