<?xml version="1.0" encoding="UTF-8"?>
<svg width="32px" height="31.997px" version="1.1" viewBox="0 0 32.000015 31.997482" xmlns="http://www.w3.org/2000/svg">
<g transform="translate(-97.373 -124.87)">
<path d="m101.22 156.24c-1.5768-0.73423-3.104-2.3995-3.5424-3.8626-0.20188-0.67383-0.30948-3.5487-0.30948-8.2687v-7.2357h4.4c2.42 0 4.4 0.0639 4.4 0.1419s-0.19354 0.58804-0.43009 1.1333c-2.2614 5.2128 2.4161 11.397 8.2649 10.928 5.3539-0.42976 8.9711-6.2291 6.8608-11l-0.53227-1.2033h9.0367v7.2858c0 8.299-0.13176 9.0498-1.898 10.816-1.8579 1.8579-2.1616 1.8984-14.216 1.8954-10.66-3e-3 -10.689-4e-3 -12.034-0.63038zm9.6148-9.6026c-6.1109-2.8889-4.2007-11.745 2.5333-11.745 6.671 0 8.6042 8.9272 2.5442 11.749-1.7354 0.80812-3.3619 0.80671-5.0776-4e-3zm4.5862-1.5234c3.1062-1.5037 3.3412-5.9767 0.41908-7.979-1.3598-0.93172-3.5842-0.93172-4.944 0-4.7314 3.242-0.62987 10.474 4.5249 7.979zm-18.053-12.143c0-3.1555 0.3376-4.3482 1.6373-5.7843l1.0075-1.1133 0.011 2.7333c0.0109 2.7254 0.0128 2.7333 0.66913 2.7333h0.65821l0.0751-3.1333c0.0724-3.0202 0.0968-3.1364 0.67513-3.2185 0.59379-0.0843 0.6-0.0519 0.6 3.1333v3.2185h1.3333v-6.6667h1.3333v6.6667h1.3333v-6.6667h8.6192c9.7689 0 10.341 0.0893 12.149 1.898 1.4351 1.4351 1.898 2.935 1.898 6.1495v2.6192h-9.862l-1.1888-0.9074c-3.1102-2.3741-8.0825-2.2088-10.391 0.34525-0.48246 0.5339-0.76054 0.56215-5.5333 0.56215h-5.0253zm29.013-0.4176c0.19275-0.19275 0.32-1.1259 0.32-2.3467 0-2.5449-0.12172-2.6667-2.6667-2.6667-1.2207 0-2.1539 0.12726-2.3467 0.32-0.19275 0.19275-0.32 1.1259-0.32 2.3467s0.12725 2.1539 0.32 2.3467c0.19274 0.19274 1.1259 0.31999 2.3467 0.31999 1.2208 0 2.1539-0.12725 2.3467-0.31999z" stroke-width=".26667"/>
<path transform="matrix(.26458 0 0 .26458 97.373 124.87)" d="m20.782 120.08c-5.7685-0.78594-12.183-4.9002-16.017-10.274-4.178-5.855-3.9718-4.0838-4.2065-36.127l-0.20863-28.483 16.083 0.37081c8.8454 0.20395 16.162 0.44864 16.259 0.54376 0.09691 0.09512-0.57195 2.0635-1.4863 4.3741-1.5299 3.866-1.6648 4.6645-1.691 10.01-0.02173 4.4324 0.19735 6.4664 0.92484 8.5863 3.8972 11.356 11.873 18.928 22.914 21.751 7.0373 1.7998 14.804 0.84267 21.495-2.6489 4.6262-2.4142 10.728-8.7426 13.124-13.612 4.2131-8.5604 4.4289-17.289 0.63846-25.834-0.71203-1.6052-1.2946-3.0258-1.2946-3.1567s7.5205-0.23814 16.712-0.23814h16.712l-0.22716 27.148c-0.28433 33.981-0.25902 33.831-6.8838 40.709-3.7776 3.9221-5.7949 5.1136-10.583 6.2513-2.8736 0.68273-8.7986 0.81605-41.236 0.92793-20.834 0.0718-39.297-0.0623-41.027-0.29805z" fill="#e73863" stroke="#fff" stroke-width=".50508"/>
<path transform="matrix(.26458 0 0 .26458 97.373 124.87)" d="m0.44215 31.629c0-13.279 1.0373-17.071 6.2715-22.923l2.6532-2.9665 0.33584 6.246c0.18471 3.4353 0.33584 7.6796 0.33584 9.4319 0 2.6329 0.16958 3.2767 0.97695 3.7088 0.84692 0.45326 3.9648 0.75237 4.1338 0.39658 0.03299-0.06945 0.21925-5.1675 0.41392-11.329 0.37365-11.826 0.6277-12.992 2.7649-12.687 0.95108 0.13589 1.0862 0.5959 1.3797 4.6963 0.17893 2.5001 0.34939 7.91 0.37881 12.022l0.05348 7.4763 2.6516-0.15266 2.6517-0.15266 0.13509-12.501 0.13509-12.501h4.0053l0.13509 12.501 0.13509 12.501 2.6517 0.15266 2.6516 0.15266v-25.379l32.451 0.2222c34.309 0.23492 35.745 0.3301 40.372 2.6745 3.1102 1.576 7.7037 6.244 9.3684 9.5203 2.3346 4.5945 2.7535 7.0281 3.0264 17.581l0.25799 9.9753-18.368-0.01123c-17.751-0.010855-18.41-0.045967-19.631-1.0449-3.7584-3.0768-9.1067-6.138-12.814-7.3342-3.3208-1.0716-5.1696-1.3376-9.6624-1.3906-8.4315-0.099304-14.423 1.8159-18.962 6.0615-1.2652 1.1834-2.9712 2.4076-3.7912 2.7204-0.94321 0.35979-8.0316 0.67683-19.295 0.863l-17.804 0.29428zm108.57-2.1273c1.7011-0.78102 2.1446-3.235 1.949-10.784-0.21887-8.4456-0.18827-8.416-8.9399-8.6388-7.4675-0.19007-10.393 0.36534-10.864 2.0629-1.132 4.0729-0.69608 15.844 0.63607 17.176 1.2492 1.2492 14.589 1.3912 17.219 0.1834z" fill="#e73863" stroke="#fff" stroke-width=".50508"/>
<path transform="matrix(.26458 0 0 .26458 97.373 124.87)" d="m54.383 83.262c-15.594-4.9859-21.867-22.036-12.997-35.32 2.4484-3.6665 4.783-5.6019 9.3164-7.7233 4.4314-2.0737 11.121-2.5677 16.19-1.1957 16.718 4.5252 22.255 26.011 9.8354 38.163-6.2297 6.0958-14.905 8.4545-22.346 6.0755zm12.769-6.0405c3.7947-1.4458 6.4992-3.8785 8.5817-7.7194 1.6446-3.0332 1.7323-3.451 1.7323-8.2459 0-4.3881-0.17211-5.4152-1.3118-7.8287-3.6133-7.6519-11.863-11.508-20.104-9.3963-12.414 3.1802-16.981 17.682-8.9037 28.272 1.7066 2.2375 4.7196 4.2983 7.9954 5.4688 3.298 1.1784 8.0442 0.96093 12.01-0.5502z" fill="#e73863" stroke="#fff" stroke-width=".50508"/>
</g>
</svg>