<?xml version="1.0" encoding="UTF-8"?>
<svg clip-rule="evenodd" fill-rule="evenodd" stroke-linejoin="round" stroke-miterlimit="1.4142" version="1.1" viewBox="0 0 32 32" xmlns="http://www.w3.org/2000/svg">
<path d="m10.064 29.003c12.076 0 18.68-10.004 18.68-18.68 0-0.28413-6e-3 -0.56697-0.0186-0.84863 1.2819-0.9267 2.3961-2.0832 3.2749-3.3997-1.1764 0.52295-2.4423 0.87494-3.7703 1.0337 1.3555-0.81277 2.3961-2.0985 2.887-3.6313-1.2685 0.75199-2.6732 1.2986-4.169 1.5936-1.198-1.2761-2.9037-2.0743-4.7923-2.0743-3.6256 0-6.5657 2.9402-6.5657 6.5644 0 0.51521 0.0577 1.0163 0.1703 1.497-5.4566-0.27457-10.295-2.887-13.533-6.8595-0.56386 0.97019-0.88901 2.0973-0.88901 3.2998 0 2.2778 1.1591 4.2886 2.9216 5.465-1.0771-0.0333-2.089-0.32902-2.9734-0.82115-9.6e-4 0.0276-9.6e-4 0.05444-9.6e-4 0.08387 0 3.1795 2.2631 5.8342 5.2672 6.4358-0.55162 0.15033-1.1321 0.23097-1.7312 0.23097-0.42233 0-0.83392-0.0416-1.2339-0.11833 0.83586 2.6086 3.2596 4.5069 6.1331 4.5599-2.2471 1.7613-5.0777 2.8103-8.1542 2.8103-0.52928 0-1.0521-0.0302-1.566-0.091 2.9056 1.8624 6.3558 2.9491 10.064 2.9491" fill="#1da1f2" fill-rule="nonzero" stroke-width=".10738"/>
</svg>