<?xml version="1.0" encoding="UTF-8" standalone="no"?>
<svg
   xmlns:dc="http://purl.org/dc/elements/1.1/"
   xmlns:cc="http://creativecommons.org/ns#"
   xmlns:rdf="http://www.w3.org/1999/02/22-rdf-syntax-ns#"
   xmlns:svg="http://www.w3.org/2000/svg"
   xmlns="http://www.w3.org/2000/svg"
   xmlns:sodipodi="http://sodipodi.sourceforge.net/DTD/sodipodi-0.dtd"
   xmlns:inkscape="http://www.inkscape.org/namespaces/inkscape"
   id="svg3390"
   version="1.1"
   inkscape:version="1.0.2-2 (e86c870879, 2021-01-15)"
   xml:space="preserve"
   width="32"
   height="32"
   viewBox="0 0 31.999999 32"
   sodipodi:docname="zillow.svg"><metadata
     id="metadata3396"><rdf:RDF><cc:Work
         rdf:about=""><dc:format>image/svg+xml</dc:format><dc:type
           rdf:resource="http://purl.org/dc/dcmitype/StillImage" /><dc:title></dc:title></cc:Work></rdf:RDF></metadata><defs
     id="defs3394"><clipPath
       clipPathUnits="userSpaceOnUse"
       id="clipPath3406"><path
         d="M 0,1436.275 H 5283.391 V 0 H 0 Z"
         id="path3408"
         inkscape:connector-curvature="0" /></clipPath></defs><sodipodi:namedview
     pagecolor="#ffffff"
     bordercolor="#666666"
     borderopacity="1"
     objecttolerance="10"
     gridtolerance="10"
     guidetolerance="10"
     inkscape:pageopacity="0"
     inkscape:pageshadow="2"
     inkscape:window-width="1920"
     inkscape:window-height="988"
     id="namedview3392"
     showgrid="false"
     fit-margin-top="100"
     fit-margin-left="100"
     fit-margin-right="100"
     fit-margin-bottom="100"
     inkscape:zoom="2.7488051"
     inkscape:cx="129.84739"
     inkscape:cy="119.42024"
     inkscape:window-x="1920"
     inkscape:window-y="13"
     inkscape:window-maximized="0"
     inkscape:current-layer="g3398"
     inkscape:document-rotation="0" /><g
     id="g3398"
     inkscape:groupmode="layer"
     inkscape:label="ForScreen_RGB_ZillowLogo_Blue-Square-Horizontal"
     transform="matrix(1.25,0,0,-1.25,-193.24901,1495.0203)"><g
       id="g840"
       transform="matrix(0.02615805,0,0,0.02615805,148.46279,1164.3282)"><path
         style="fill:#0074e4;fill-opacity:1"
         d="m 606.86413,658.93126 c 0,-8.13666 273.79259,-206.73819 333.7308,-242.07902 l 20.90982,-12.32888 25.386,15.24761 c 13.96235,8.38618 64.28095,41.30331 111.81915,73.14917 81.4803,54.58364 85.6077,57.95825 72.0276,58.89072 -138.0133,9.47658 -382.96386,56.44675 -554.61267,106.34903 -5.09338,1.48077 -9.2607,1.82788 -9.2607,0.77137 z"
         id="path839"
         transform="matrix(0.8,0,0,-0.8,-1.3718,1439.6349)" /><path
         style="fill:#0074e4;fill-opacity:1"
         d="m 1000.8,795.38218 219.0115,-219.53928 32.0562,22.24956 c 71.1225,49.36486 261.3077,193.07822 266.3853,201.294 1.1186,1.8099 -43.1632,7.63737 -98.4041,12.94996 l -100.4378,9.65923 -16.7147,41.96432 c -9.1931,23.08037 -16.7147,43.86058 -16.7147,46.17824 0,4.61426 -14.6827,7.31916 -61.7379,11.37354 -102.6782,8.84696 -347.80031,59.93395 -434.22371,90.49845 -4.52745,1.6012 90.32349,-95.88142 210.77991,-216.62802 z"
         id="path841"
         transform="matrix(0.8,0,0,-0.8,-1.3718,1439.6349)" /><path
         style="fill:#0074e4;fill-opacity:1"
         d="m 340.08054,1388.9922 c 0.7207,-1.7348 11.27573,-31.7489 23.45564,-66.698 12.17991,-34.9491 25.64598,-66.6498 29.92461,-70.4459 9.95237,-8.83 116.50765,-51.0098 195.58916,-77.4238 171.72812,-57.3587 382.46835,-103.1149 559.05035,-121.3817 33.9559,-3.5126 68.821,-7.1262 77.4782,-8.0303 10.8022,-1.1281 15.179,-0.1397 13.9512,3.1504 -0.9841,2.6369 -14.2782,40.2483 -29.5426,83.581 l -27.7535,78.7867 -31.4722,2.7662 c -158.58118,13.9384 -326.14932,42.8523 -502.60358,86.7243 -98.21992,24.4204 -222.56959,60.4009 -275.15036,79.6145 -18.8305,6.8809 -33.64761,11.0913 -32.92692,9.3566 z"
         id="path843"
         transform="matrix(0.8,0,0,-0.8,-1.3718,1439.6349)" /><path
         style="fill:#0074e4;fill-opacity:1"
         d="m 410.08746,1194.9545 c 1.20178,-3.3956 23.1117,-63.1405 48.68871,-132.7665 25.57701,-69.62595 45.74535,-127.32621 44.81854,-128.22279 -2.1612,-2.0907 -111.96792,15.32314 -165.60864,26.26327 -22.63,4.61543 -41.97729,7.55985 -42.99398,6.54317 -1.01668,-1.01668 25.46485,-29.69581 58.84786,-63.73138 C 422.96574,832.5632 414.9644,837.07574 549.24203,792.83886 656.14808,757.61938 950.34963,676.724 954.78138,681.32939 955.4165,681.98938 925.08752,711.104 887.38361,746.02855 736.06444,886.19332 563.60214,1048.9 487.88718,1122.9268 c -43.99162,43.0108 -79.0015,75.4232 -77.79972,72.0277 z"
         id="path845"
         transform="matrix(0.8,0,0,-0.8,-1.3718,1439.6349)" /></g></g></svg>
