<?xml version="1.0" encoding="UTF-8"?>
<svg width="32" height="32" version="1.1" viewBox="0 0 31.999999 32" xml:space="preserve" xmlns="http://www.w3.org/2000/svg"><g transform="matrix(1.25 0 0 -1.25 -193.25 1495)"><g transform="matrix(.026158 0 0 .026158 148.46 1164.3)" fill="#0074e4"><path transform="matrix(.8 0 0 -.8 -1.3718 1439.6)" d="m606.86 658.93c0-8.1367 273.79-206.74 333.73-242.08l20.91-12.329 25.386 15.248c13.962 8.3862 64.281 41.303 111.82 73.149 81.48 54.584 85.608 57.958 72.028 58.891-138.01 9.4766-382.96 56.447-554.61 106.35-5.0934 1.4808-9.2607 1.8279-9.2607 0.77137z"/><path transform="matrix(.8 0 0 -.8 -1.3718 1439.6)" d="m1000.8 795.38 219.01-219.54 32.056 22.25c71.122 49.365 261.31 193.08 266.39 201.29 1.1186 1.8099-43.163 7.6374-98.404 12.95l-100.44 9.6592-16.715 41.964c-9.1931 23.08-16.715 43.861-16.715 46.178 0 4.6143-14.683 7.3192-61.738 11.374-102.68 8.847-347.8 59.934-434.22 90.498-4.5274 1.6012 90.323-95.881 210.78-216.63z"/><path transform="matrix(.8 0 0 -.8 -1.3718 1439.6)" d="m340.08 1389c0.7207-1.7348 11.276-31.749 23.456-66.698s25.646-66.65 29.925-70.446c9.9524-8.83 116.51-51.01 195.59-77.424 171.73-57.359 382.47-103.11 559.05-121.38 33.956-3.5126 68.821-7.1262 77.478-8.0303 10.802-1.1281 15.179-0.1397 13.951 3.1504-0.9841 2.6369-14.278 40.248-29.543 83.581l-27.754 78.787-31.472 2.7662c-158.58 13.938-326.15 42.852-502.6 86.724-98.22 24.42-222.57 60.401-275.15 79.614-18.83 6.8809-33.648 11.091-32.927 9.3566z"/><path transform="matrix(.8 0 0 -.8 -1.3718 1439.6)" d="m410.09 1195c1.2018-3.3956 23.112-63.14 48.689-132.77 25.577-69.626 45.745-127.33 44.819-128.22-2.1612-2.0907-111.97 15.323-165.61 26.263-22.63 4.6154-41.977 7.5598-42.994 6.5432-1.0167-1.0167 25.465-29.696 58.848-63.731 69.126-70.477 61.124-65.965 195.4-110.2 106.91-35.219 401.11-116.11 405.54-111.51 0.63512 0.65999-29.694 29.775-67.398 64.699-151.32 140.16-323.78 302.87-399.5 376.9-43.992 43.011-79.002 75.423-77.8 72.028z"/></g></g></svg>
